<mxfile host="app.diagrams.net" agent="Mozilla/5.0 (Windows NT 10.0; Win64; x64) AppleWebKit/537.36 (KHTML, like Gecko) Chrome/126.0.0.0 Safari/537.36" version="24.7.16">
  <diagram name="1 oldal" id="9Y6vD74R88X7QCgbHID5">
    <mxGraphModel dx="1395" dy="663" grid="0" gridSize="10" guides="1" tooltips="1" connect="1" arrows="1" fold="1" page="1" pageScale="1" pageWidth="827" pageHeight="1169" math="0" shadow="0">
      <root>
        <mxCell id="0" />
        <mxCell id="1" parent="0" />
        <mxCell id="bWwERPiMbQXjMnDyrLdI-12" value="" style="edgeStyle=orthogonalEdgeStyle;rounded=0;orthogonalLoop=1;jettySize=auto;html=1;" parent="1" source="bWwERPiMbQXjMnDyrLdI-1" target="bWwERPiMbQXjMnDyrLdI-2" edge="1">
          <mxGeometry relative="1" as="geometry" />
        </mxCell>
        <mxCell id="bWwERPiMbQXjMnDyrLdI-1" value="START" style="ellipse;whiteSpace=wrap;html=1;strokeColor=default;" parent="1" vertex="1">
          <mxGeometry x="99" y="67" width="120" height="80" as="geometry" />
        </mxCell>
        <mxCell id="bWwERPiMbQXjMnDyrLdI-13" value="" style="edgeStyle=orthogonalEdgeStyle;rounded=0;orthogonalLoop=1;jettySize=auto;html=1;" parent="1" source="bWwERPiMbQXjMnDyrLdI-2" target="bWwERPiMbQXjMnDyrLdI-3" edge="1">
          <mxGeometry relative="1" as="geometry" />
        </mxCell>
        <mxCell id="bWwERPiMbQXjMnDyrLdI-2" value="Be: t[], maxi" style="shape=parallelogram;perimeter=parallelogramPerimeter;whiteSpace=wrap;html=1;fixedSize=1;" parent="1" vertex="1">
          <mxGeometry x="281" y="77" width="120" height="60" as="geometry" />
        </mxCell>
        <mxCell id="bWwERPiMbQXjMnDyrLdI-14" value="" style="edgeStyle=orthogonalEdgeStyle;rounded=0;orthogonalLoop=1;jettySize=auto;html=1;" parent="1" source="bWwERPiMbQXjMnDyrLdI-3" target="bWwERPiMbQXjMnDyrLdI-4" edge="1">
          <mxGeometry relative="1" as="geometry" />
        </mxCell>
        <mxCell id="bWwERPiMbQXjMnDyrLdI-3" value="i = 0" style="whiteSpace=wrap;html=1;aspect=fixed;" parent="1" vertex="1">
          <mxGeometry x="467" y="67" width="80" height="80" as="geometry" />
        </mxCell>
        <mxCell id="bWwERPiMbQXjMnDyrLdI-10" value="" style="edgeStyle=orthogonalEdgeStyle;rounded=0;orthogonalLoop=1;jettySize=auto;html=1;" parent="1" source="bWwERPiMbQXjMnDyrLdI-4" target="bWwERPiMbQXjMnDyrLdI-5" edge="1">
          <mxGeometry relative="1" as="geometry" />
        </mxCell>
        <mxCell id="bWwERPiMbQXjMnDyrLdI-18" value="" style="edgeStyle=orthogonalEdgeStyle;rounded=0;orthogonalLoop=1;jettySize=auto;html=1;" parent="1" source="bWwERPiMbQXjMnDyrLdI-4" target="bWwERPiMbQXjMnDyrLdI-16" edge="1">
          <mxGeometry relative="1" as="geometry" />
        </mxCell>
        <mxCell id="bWwERPiMbQXjMnDyrLdI-4" value="i &amp;lt; t[]hossz" style="rhombus;whiteSpace=wrap;html=1;" parent="1" vertex="1">
          <mxGeometry x="442.75" y="195" width="128.5" height="126" as="geometry" />
        </mxCell>
        <mxCell id="bWwERPiMbQXjMnDyrLdI-11" value="" style="edgeStyle=orthogonalEdgeStyle;rounded=0;orthogonalLoop=1;jettySize=auto;html=1;" parent="1" source="bWwERPiMbQXjMnDyrLdI-5" target="bWwERPiMbQXjMnDyrLdI-6" edge="1">
          <mxGeometry relative="1" as="geometry" />
        </mxCell>
        <mxCell id="bWwERPiMbQXjMnDyrLdI-5" value="t[maxi]&amp;lt;t[i]" style="rhombus;whiteSpace=wrap;html=1;" parent="1" vertex="1">
          <mxGeometry x="435.25" y="349.5" width="136" height="141" as="geometry" />
        </mxCell>
        <mxCell id="roGelW6mmD6j1Y5tUXU--3" value="" style="edgeStyle=none;curved=1;rounded=0;orthogonalLoop=1;jettySize=auto;html=1;fontSize=12;startSize=8;endSize=8;" edge="1" parent="1" source="bWwERPiMbQXjMnDyrLdI-6" target="roGelW6mmD6j1Y5tUXU--2">
          <mxGeometry relative="1" as="geometry" />
        </mxCell>
        <mxCell id="bWwERPiMbQXjMnDyrLdI-6" value="maxi = i" style="rounded=0;whiteSpace=wrap;html=1;" parent="1" vertex="1">
          <mxGeometry x="264" y="390" width="120" height="60" as="geometry" />
        </mxCell>
        <mxCell id="bWwERPiMbQXjMnDyrLdI-19" value="" style="edgeStyle=orthogonalEdgeStyle;rounded=0;orthogonalLoop=1;jettySize=auto;html=1;" parent="1" source="bWwERPiMbQXjMnDyrLdI-16" target="bWwERPiMbQXjMnDyrLdI-17" edge="1">
          <mxGeometry relative="1" as="geometry" />
        </mxCell>
        <mxCell id="bWwERPiMbQXjMnDyrLdI-16" value="Ki: maxi" style="rounded=0;whiteSpace=wrap;html=1;" parent="1" vertex="1">
          <mxGeometry x="617" y="228" width="120" height="60" as="geometry" />
        </mxCell>
        <mxCell id="bWwERPiMbQXjMnDyrLdI-17" value="END" style="ellipse;whiteSpace=wrap;html=1;" parent="1" vertex="1">
          <mxGeometry x="779" y="218" width="120" height="80" as="geometry" />
        </mxCell>
        <mxCell id="bWwERPiMbQXjMnDyrLdI-20" value="H" style="text;html=1;align=center;verticalAlign=middle;whiteSpace=wrap;rounded=0;" parent="1" vertex="1">
          <mxGeometry x="557" y="221" width="60" height="30" as="geometry" />
        </mxCell>
        <mxCell id="bWwERPiMbQXjMnDyrLdI-21" value="I" style="text;html=1;align=center;verticalAlign=middle;whiteSpace=wrap;rounded=0;" parent="1" vertex="1">
          <mxGeometry x="465" y="317" width="60" height="30" as="geometry" />
        </mxCell>
        <mxCell id="bWwERPiMbQXjMnDyrLdI-22" value="I" style="text;html=1;align=center;verticalAlign=middle;whiteSpace=wrap;rounded=0;" parent="1" vertex="1">
          <mxGeometry x="384" y="390" width="60" height="30" as="geometry" />
        </mxCell>
        <mxCell id="bWwERPiMbQXjMnDyrLdI-23" value="" style="endArrow=classic;html=1;rounded=0;exitX=1;exitY=0.5;exitDx=0;exitDy=0;" parent="1" source="bWwERPiMbQXjMnDyrLdI-5" edge="1">
          <mxGeometry width="50" height="50" relative="1" as="geometry">
            <mxPoint x="534" y="315" as="sourcePoint" />
            <mxPoint x="634" y="420" as="targetPoint" />
          </mxGeometry>
        </mxCell>
        <mxCell id="bWwERPiMbQXjMnDyrLdI-24" value="H" style="text;html=1;align=center;verticalAlign=middle;whiteSpace=wrap;rounded=0;" parent="1" vertex="1">
          <mxGeometry x="567" y="387" width="60" height="30" as="geometry" />
        </mxCell>
        <mxCell id="roGelW6mmD6j1Y5tUXU--5" style="edgeStyle=none;curved=1;rounded=0;orthogonalLoop=1;jettySize=auto;html=1;fontSize=12;startSize=8;endSize=8;" edge="1" parent="1" source="roGelW6mmD6j1Y5tUXU--1" target="bWwERPiMbQXjMnDyrLdI-4">
          <mxGeometry relative="1" as="geometry" />
        </mxCell>
        <mxCell id="roGelW6mmD6j1Y5tUXU--1" value="i++" style="rounded=0;whiteSpace=wrap;html=1;" vertex="1" parent="1">
          <mxGeometry x="633" y="390" width="120" height="60" as="geometry" />
        </mxCell>
        <mxCell id="roGelW6mmD6j1Y5tUXU--4" style="edgeStyle=none;curved=1;rounded=0;orthogonalLoop=1;jettySize=auto;html=1;fontSize=12;startSize=8;endSize=8;" edge="1" parent="1" source="roGelW6mmD6j1Y5tUXU--2" target="bWwERPiMbQXjMnDyrLdI-4">
          <mxGeometry relative="1" as="geometry" />
        </mxCell>
        <mxCell id="roGelW6mmD6j1Y5tUXU--2" value="i++" style="rounded=0;whiteSpace=wrap;html=1;" vertex="1" parent="1">
          <mxGeometry x="264" y="293" width="120" height="60" as="geometry" />
        </mxCell>
      </root>
    </mxGraphModel>
  </diagram>
</mxfile>
